<svg width="24" height="24" viewBox="0 0 24 24" xmlns="http://www.w3.org/2000/svg"><path fill-rule="evenodd" clip-rule="evenodd" d="M15.5607 3.43933C12.7992 3.43933 10.5607 5.67791 10.5607 8.43933C10.5607 8.85002 10.61 9.24783 10.7025 9.62774L10.7072 9.64689C10.7627 9.87502 10.8115 10.0752 10.844 10.2369C10.8749 10.3904 10.9118 10.6016 10.8967 10.821C10.8763 11.1195 10.8148 11.3389 10.6772 11.6045C10.5309 11.8868 10.2819 12.134 10.0762 12.3383C10.0555 12.3588 10.0353 12.3789 10.0156 12.3986L3.76776 18.6464C3.32986 19.0843 3.32986 19.7943 3.76776 20.2322C4.20566 20.6701 4.91564 20.6701 5.35354 20.2322L11.6014 13.9844C11.621 13.9647 11.6412 13.9445 11.6617 13.9238C11.866 13.718 12.1131 13.4691 12.3954 13.3228C12.6611 13.1852 12.8805 13.1237 13.179 13.1032C13.3984 13.0882 13.6095 13.1251 13.763 13.156C13.9248 13.1885 14.1249 13.2372 14.3529 13.2928L14.3722 13.2975C14.7521 13.39 15.15 13.4393 15.5607 13.4393C18.3221 13.4393 20.5607 11.2008 20.5607 8.43933C20.5607 8.25145 20.5503 8.06616 20.5302 7.88396L18.8765 9.53765C18.6981 9.71613 18.5243 9.88994 18.3651 10.0251C18.1903 10.1735 17.9684 10.3331 17.6787 10.4272C17.277 10.5577 16.8443 10.5577 16.4426 10.4272C16.1529 10.3331 15.931 10.1735 15.7562 10.0251C15.5969 9.88993 15.4232 9.71611 15.2447 9.53763L14.4624 8.75526C14.2839 8.57682 14.1101 8.40304 13.9749 8.24382C13.8265 8.06897 13.6669 7.84708 13.5728 7.55736C13.4422 7.15568 13.4422 6.72298 13.5728 6.3213C13.6669 6.03158 13.8265 5.80969 13.9749 5.63484C14.1101 5.47562 14.2839 5.30183 14.4624 5.12339L16.116 3.46974C15.9338 3.44965 15.7485 3.43933 15.5607 3.43933ZM8.56065 8.43933C8.56065 4.57334 11.6947 1.43933 15.5607 1.43933C16.586 1.43933 17.5623 1.6604 18.4425 2.05843C18.7416 2.19372 18.9553 2.46723 19.0142 2.79022C19.0731 3.11322 18.9697 3.44454 18.7375 3.67669L15.8991 6.51507C15.6895 6.72474 15.5753 6.84002 15.4996 6.9292C15.4966 6.93275 15.4937 6.93613 15.4911 6.93933C15.4937 6.94254 15.4966 6.94591 15.4996 6.94946C15.5753 7.03864 15.6895 7.15392 15.8991 7.3636L16.6364 8.10085C16.8461 8.31053 16.9613 8.42471 17.0505 8.50041C17.0541 8.50343 17.0574 8.50626 17.0607 8.50893C17.0639 8.50626 17.0672 8.50343 17.0708 8.50041C17.16 8.42471 17.2752 8.31053 17.4849 8.10085L20.3233 5.26248C20.5554 5.03033 20.8868 4.92692 21.2098 4.98581C21.5328 5.04469 21.8063 5.25838 21.9416 5.55753C22.3396 6.43766 22.5607 7.41403 22.5607 8.43933C22.5607 12.3053 19.4266 15.4393 15.5607 15.4393C14.9893 15.4393 14.4326 15.3707 13.8989 15.2407C13.6458 15.179 13.4858 15.1402 13.3689 15.1167C13.3472 15.1124 13.3295 15.1091 13.3153 15.1066C13.3116 15.1099 13.3075 15.1136 13.3031 15.1176C13.2409 15.1737 13.1594 15.2548 13.0156 15.3986L6.76776 21.6464C5.54881 22.8654 3.5725 22.8654 2.35354 21.6464C1.13459 20.4275 1.13459 18.4512 2.35354 17.2322L8.60136 10.9844C8.74518 10.8406 8.82628 10.7591 8.88239 10.6969C8.88641 10.6925 8.89006 10.6884 8.89336 10.6846C8.89089 10.6705 8.88761 10.6528 8.88326 10.6311C8.85975 10.5142 8.82097 10.3542 8.75933 10.1011C8.62932 9.56743 8.56065 9.01073 8.56065 8.43933ZM8.91062 10.6678C8.91058 10.6679 8.91065 10.6677 8.91062 10.6678C8.90892 10.6727 8.90709 10.6783 8.90531 10.6846C8.90524 10.6849 8.90538 10.6844 8.90531 10.6846C8.90524 10.6849 8.90495 10.6859 8.90488 10.6862C8.90313 10.6925 8.90175 10.6983 8.90069 10.7033C8.90061 10.7036 8.90054 10.704 8.90046 10.7044" fill="currentColor"></path></svg>